<svg version="1.1" xmlns="http://www.w3.org/2000/svg" xmlns:xlink="http://www.w3.org/1999/xlink" width="1331" height="698"><defs>
    <style type="text/css">
      @font-face {
        font-family: 'topology';
        src: url('http://at.alicdn.com/t/font_1331132_h688rvffmbc.ttf') format('truetype');
      }
    @font-face {
      font-family: 'ltee';
      src: url('http://at.alicdn.com/t/font_2052340_ceohsubmal7.ttf') format('truetype');
    }
  @font-face {
    font-family: 'ltdx';
    src: url('http://at.alicdn.com/t/font_2073009_5ilnjxypv6l.ttf') format('truetype');
  }
</style>

  </defs>
<g><g id="bb1c76" name="square" text="网络2&#xA;"><path fill="none" stroke="#222222" paint-order="fill stroke markers" d=" M 777 239 L 1317 239 L 1317 688 L 777 688 L 777 239 Z" stroke-miterlimit="10" stroke-dasharray=""/><g><path fill="none" stroke="none"/><text fill="#222222" stroke="none" font-family="&quot;Hiragino Sans GB&quot;, &quot;Microsoft YaHei&quot;, &quot;Helvetica Neue&quot;, Helvetica, Arial " font-size="12px" font-style="normal" font-weight="normal" text-decoration="normal" x="1307" y="252" text-anchor="end" dominant-baseline="text-before-edge">网络2</text><text fill="#222222" stroke="none" font-family="&quot;Hiragino Sans GB&quot;, &quot;Microsoft YaHei&quot;, &quot;Helvetica Neue&quot;, Helvetica, Arial " font-size="12px" font-style="normal" font-weight="normal" text-decoration="normal" x="1307" y="270" text-anchor="end" dominant-baseline="text-before-edge"></text></g></g><g id="105a4e07" name="rectangle" text="网络1&#xA;"><path fill="none" stroke="#222222" paint-order="fill stroke markers" d=" M 20.99999999999983 233 L 479.99999999999983 233 L 479.99999999999983 686 L 20.99999999999983 686 L 20.99999999999983 233 Z" stroke-miterlimit="10" stroke-dasharray=""/><g><path fill="none" stroke="none"/><text fill="#222222" stroke="none" font-family="&quot;Hiragino Sans GB&quot;, &quot;Microsoft YaHei&quot;, &quot;Helvetica Neue&quot;, Helvetica, Arial " font-size="12px" font-style="normal" font-weight="normal" text-decoration="normal" x="469.99999999999983" y="246" text-anchor="end" dominant-baseline="text-before-edge">网络1</text><text fill="#222222" stroke="none" font-family="&quot;Hiragino Sans GB&quot;, &quot;Microsoft YaHei&quot;, &quot;Helvetica Neue&quot;, Helvetica, Arial " font-size="12px" font-style="normal" font-weight="normal" text-decoration="normal" x="469.99999999999983" y="264" text-anchor="end" dominant-baseline="text-before-edge"></text></g></g><g id="e587c5d" name="cisco.routers.Router"><path fill="none" stroke="#222222" paint-order="fill stroke markers" d=" M 352.9999999999999 173.60267585647676 C 352.9999999999999 184.40745996351103 330.70119602675845 193.18508007297788 302.98986418001203 193.18508007297788 C 275.29880397324126 193.18508007297788 252.99999999999983 184.40745996351103 252.99999999999983 173.60267585647676 C 252.99999999999983 201.98297182242044 252.99999999999983 201.98297182242044 252.99999999999983 201.98297182242044 C 252.99999999999983 212.7877559294547 275.29880397324126 221.56537603892156 302.98986418001203 221.56537603892156 C 330.70119602675845 221.56537603892156 352.9999999999999 212.7877559294547 352.9999999999999 201.98297182242044 Z" stroke-miterlimit="10" stroke-dasharray=""/><path fill="none" stroke="#222222" paint-order="fill stroke markers" d=" M 302.98986418001203 193.18508007297788 C 330.70119602675845 193.18508007297788 352.9999999999999 184.40745996351103 352.9999999999999 173.60267585647676 C 352.9999999999999 162.77762010946682 330.70119602675845 153.99999999999997 302.98986418001203 153.99999999999997 C 275.29880397324126 153.99999999999997 252.99999999999983 162.77762010946682 252.99999999999983 173.60267585647676 C 252.99999999999983 184.40745996351103 275.29880397324126 193.18508007297788 302.98986418001203 193.18508007297788 Z" stroke-miterlimit="10" stroke-dasharray=""/><path fill="none" stroke="#222222" paint-order="fill stroke markers" d="" stroke-miterlimit="10" stroke-dasharray="" stroke-linejoin="round"/><path fill="none" stroke="#222222" paint-order="fill stroke markers" d=" M 291.5161159537805 166.1629839854044 L 295.57044394891534 172.2444759781066 L 280.02209608757335 175.62983985404418 L 283.4074599635109 172.91344009730386 L 259.75045611189927 168.85911210216904 L 265.8319481046015 164.13581998783698 L 288.7997161970402 168.1901479829718 Z" stroke-linejoin="round" stroke-miterlimit="10" stroke-dasharray=""/><path fill="none" stroke="#222222" paint-order="fill stroke markers" d=" M 313.81491992702195 181.02209608757346 L 310.4295560510844 174.94060409487125 L 324.6197040340562 171.57551185890935 L 322.5925400364888 174.27163997567402 L 345.5603081289275 178.32596797080882 L 340.1680518953982 182.38029596594362 L 316.5110480437866 178.32596797080882 Z" stroke-linejoin="round" stroke-miterlimit="10" stroke-dasharray=""/><path fill="none" stroke="#222222" paint-order="fill stroke markers" d=" M 305.70626393675235 162.77762010946682 L 321.23434015811864 158.72329211433203 L 321.9235759172916 164.80478410703424 L 317.8692479221568 164.13581998783698 L 310.4295560510844 170.88627609973645 L 302.98986418001203 169.54834786134197 L 310.4295560510844 163.46685586863975 Z" stroke-linejoin="round" stroke-miterlimit="10" stroke-dasharray=""/><path fill="none" stroke="#222222" paint-order="fill stroke markers" d=" M 298.9355361848772 187.10358808027567 L 284.0764240827081 189.81998783701601 L 283.4074599635109 182.38029596594362 L 288.13075207784294 183.73849584431377 L 296.23940806811254 176.2988039732414 L 303.67909993918494 177.6570038516116 L 294.8812081897424 185.7656598418812 Z" stroke-linejoin="round" stroke-miterlimit="10" stroke-dasharray=""/><path fill="none" stroke="#222222" paint-order="fill stroke markers" d="" stroke-linejoin="round" stroke-miterlimit="10" stroke-dasharray=""/></g><g id="fce796" name="cisco.routers.Router"><path fill="none" stroke="#222222" paint-order="fill stroke markers" d=" M 907 160.9759084771823 C 907 171.78069258421655 884.7011960267586 180.5583126936834 856.9898641800122 180.5583126936834 C 829.2988039732414 180.5583126936834 807 171.78069258421655 807 160.9759084771823 C 807 189.35620444312596 807 189.35620444312596 807 189.35620444312596 C 807 200.1609885501602 829.2988039732414 208.93860865962705 856.9898641800122 208.93860865962705 C 884.7011960267586 208.93860865962705 907 200.1609885501602 907 189.35620444312596 Z" stroke-miterlimit="10" stroke-dasharray=""/><path fill="none" stroke="#222222" paint-order="fill stroke markers" d=" M 856.9898641800122 180.5583126936834 C 884.7011960267586 180.5583126936834 907 171.78069258421655 907 160.9759084771823 C 907 150.15085273017235 884.7011960267586 141.3732326207055 856.9898641800122 141.3732326207055 C 829.2988039732414 141.3732326207055 807 150.15085273017235 807 160.9759084771823 C 807 171.78069258421655 829.2988039732414 180.5583126936834 856.9898641800122 180.5583126936834 Z" stroke-miterlimit="10" stroke-dasharray=""/><path fill="none" stroke="#222222" paint-order="fill stroke markers" d="" stroke-miterlimit="10" stroke-dasharray="" stroke-linejoin="round"/><path fill="none" stroke="#222222" paint-order="fill stroke markers" d=" M 845.5161159537806 153.53621660610992 L 849.5704439489155 159.61770859881213 L 834.0220960875735 163.0030724747497 L 837.4074599635111 160.28667271800938 L 813.7504561118994 156.23234472287456 L 819.8319481046017 151.5090526085425 L 842.7997161970403 155.56338060367733 Z" stroke-linejoin="round" stroke-miterlimit="10" stroke-dasharray=""/><path fill="none" stroke="#222222" paint-order="fill stroke markers" d=" M 867.8149199270222 168.39532870827898 L 864.4295560510845 162.31383671557677 L 878.6197040340564 158.9487444796149 L 876.592540036489 161.64487259637954 L 899.5603081289277 165.69920059151434 L 894.1680518953983 169.75352858664914 L 870.5110480437868 165.69920059151434 Z" stroke-linejoin="round" stroke-miterlimit="10" stroke-dasharray=""/><path fill="none" stroke="#222222" paint-order="fill stroke markers" d=" M 859.7062639367525 150.15085273017235 L 875.2343401581188 146.09652473503755 L 875.9235759172917 152.17801672773976 L 871.8692479221569 151.5090526085425 L 864.4295560510845 158.25950872044197 L 856.9898641800122 156.9215804820475 L 864.4295560510845 150.84008848934528 Z" stroke-linejoin="round" stroke-miterlimit="10" stroke-dasharray=""/><path fill="none" stroke="#222222" paint-order="fill stroke markers" d=" M 852.9355361848774 174.4768207009812 L 838.0764240827083 177.19322045772154 L 837.4074599635111 169.75352858664914 L 842.1307520778431 171.11172846501933 L 850.2394080681128 163.67203659394693 L 857.6790999391851 165.03023647231709 L 848.8812081897426 173.1388924625867 Z" stroke-linejoin="round" stroke-miterlimit="10" stroke-dasharray=""/><path fill="none" stroke="#222222" paint-order="fill stroke markers" d="" stroke-linejoin="round" stroke-miterlimit="10" stroke-dasharray=""/></g><g id="716058b7" name="networks.PC" text="电脑1"><path fill="none" stroke="none"/><path fill="none" stroke="#222222" paint-order="fill stroke markers" d=" M 43.06669999999994 549.843042426907 L 72.93329999999996 549.843042426907 L 72.93329999999996 549.843042426907 A 0.06670000000000002 0.06670000000000002 0 0 1 72.99999999999996 549.909742426907 L 72.99999999999996 609.776342426907 L 72.99999999999996 609.776342426907 A 0.06670000000000002 0.06670000000000002 0 0 1 72.93329999999996 609.843042426907 L 43.08783467777277 619.8136989606761 L 43.08783467777277 619.8136989606761 A 0.06670000000000002 0.06670000000000002 0 0 1 42.99999999999994 619.7504358956584 L 42.99999999999994 549.909742426907 L 42.99999999999994 549.909742426907 A 0.06670000000000002 0.06670000000000002 0 0 1 43.06669999999994 549.843042426907 Z" stroke-linejoin="round" stroke-miterlimit="10" stroke-dasharray=""/><path fill="none" stroke="#222222" paint-order="fill stroke markers" d=" M 42.99999999999994 559.843042426907 L 72.99999999999996 559.843042426907" stroke-linejoin="round" stroke-miterlimit="10" stroke-dasharray=""/><path fill="none" stroke="#222222" paint-order="fill stroke markers" d=" M 42.99999999999994 579.843042426907 L 72.99999999999996 579.843042426907" stroke-linejoin="round" stroke-miterlimit="10" stroke-dasharray=""/><path fill="none" stroke="#222222" paint-order="fill stroke markers" d=" M 62.99999999999995 554.843042426907 L 142.99999999999997 554.843042426907 L 142.99999999999997 599.843042426907 L 62.99999999999995 599.843042426907 L 62.99999999999995 554.843042426907 Z" stroke-linejoin="round" stroke-miterlimit="10" stroke-dasharray=""/><path fill="none" stroke="#222222" paint-order="fill stroke markers" d=" M 92.99999999999997 599.843042426907 L 112.99999999999997 599.843042426907 L 112.99999999999997 609.843042426907 L 92.99999999999997 609.843042426907 L 92.99999999999997 599.843042426907 Z" stroke-linejoin="round" stroke-miterlimit="10" stroke-dasharray=""/><path fill="none" stroke="#222222" paint-order="fill stroke markers" d=" M 77.99999999999996 608.843042426907 L 127.99999999999999 608.843042426907 L 138 619.843042426907 L 67.99999999999996 619.843042426907 Z" stroke-linejoin="round" stroke-miterlimit="10" stroke-dasharray=""/><path fill="none" stroke="#222222" paint-order="fill stroke markers" d=" M 91.99999999999997 617.343042426907 L 109.99999999999997 617.343042426907" stroke-linejoin="round" stroke-miterlimit="10" stroke-dasharray=""/><path fill="none" stroke="#222222" paint-order="fill stroke markers" d=" M 78.99999999999996 614.343042426907 L 117.99999999999997 614.343042426907" stroke-linejoin="round" stroke-miterlimit="10" stroke-dasharray=""/><path fill="none" stroke="#222222" paint-order="fill stroke markers" d=" M 80.99999999999996 611.343042426907 L 116.99999999999997 611.343042426907" stroke-linejoin="round" stroke-miterlimit="10" stroke-dasharray=""/><path fill="none" stroke="#222222" paint-order="fill stroke markers" d=" M 119.99999999999997 611.343042426907 L 126.99999999999999 611.343042426907" stroke-linejoin="round" stroke-miterlimit="10" stroke-dasharray=""/><path fill="none" stroke="#222222" paint-order="fill stroke markers" d=" M 121.99999999999997 614.343042426907 L 129 614.343042426907" stroke-linejoin="round" stroke-miterlimit="10" stroke-dasharray=""/><path fill="none" stroke="#222222" paint-order="fill stroke markers" d=" M 123.99999999999999 617.343042426907 L 131 617.343042426907" stroke-linejoin="round" stroke-miterlimit="10" stroke-dasharray=""/><path fill="none" stroke="#222222" paint-order="fill stroke markers" d=" M 65.99999999999996 557.843042426907 L 139 557.843042426907 L 139 596.843042426907 L 65.99999999999996 596.843042426907 L 65.99999999999996 557.843042426907 Z" stroke-linejoin="round" stroke-miterlimit="10" stroke-dasharray=""/><path fill="none" stroke="none"/><g><path fill="none" stroke="none"/><text fill="#222222" stroke="none" font-family="&quot;Hiragino Sans GB&quot;, &quot;Microsoft YaHei&quot;, &quot;Helvetica Neue&quot;, Helvetica, Arial " font-size="12.000000000000005px" font-style="normal" font-weight="normal" text-decoration="normal" x="92.99999999999997" y="586.1287567126213" text-anchor="middle" dominant-baseline="central">电脑1</text></g></g><g id="5562d6ea" name="networks.Cloud"><path fill="none" stroke="#222222" paint-order="fill stroke markers" d=" M 659.1661237785016 62.671009771986974 C 666.6618451388545 61.771523208744654 672.0091499725801 54.96586251127572 671.1096634093377 47.47014115092294 C 670.2101768460954 39.97441979057015 663.4045161486265 34.627114956844544 655.9087947882737 35.526601520086864 C 655.8254177369059 24.329914606327044 647.975866773273 14.693726575006522 637.02741573745 12.347629924473054 C 626.0789647016272 10.001533273939586 614.970155800016 15.575215619850642 610.3061889250814 25.754614549402824 C 606.8499272022859 21.801783407356634 601.3586874299023 20.309878846780556 596.3773665989788 21.97031912375506 C 591.3960457680553 23.63075940072956 587.8981966864941 28.119026912620594 587.5048859934853 33.355048859934854 C 579.4095069243043 33.05522000552075 572.6038462268353 39.37476208174192 572.3040173724213 47.47014115092293 C 572.0041885180071 55.565520220103934 578.3237305942283 62.37118091757287 586.4191096634094 62.671009771986974 Z" stroke-miterlimit="10" stroke-dasharray=""/><path fill="none" stroke="#222222" paint-order="fill stroke markers" d="" stroke-miterlimit="10" stroke-dasharray=""/></g><g id="640a5adb" name="aws4.traditional server"><path fill="none" stroke="#222222" paint-order="fill stroke markers" d=" M 813.5948560123104 489.9680886330159 L 900.4051439876896 489.9680886330159 L 900.4051439876896 648.4644614622091 L 813.5948560123104 648.4644614622091 Z" stroke-miterlimit="10" stroke-dasharray=""/><path fill="none" stroke="#222222" paint-order="fill stroke markers" d=" M 810.6711365135194 483.3732326207055 C 808.736645416575 483.3732326207055 807.7913827214772 484.71418667654194 807.4396570674874 485.46160369127045 C 807.0879314134975 486.1870378526246 807 486.78057489373253 807 487.4180776415892 L 807 651.0144724536358 C 807 651.6519752014924 807.0879314134975 652.2455122426004 807.4396570674874 652.9929292573289 C 807.7913827214772 653.7183634186831 808.736645416575 655.0593174745195 810.6711365135194 655.0593174745195 L 903.3508463398549 655.0593174745195 C 905.2853374367993 655.0593174745195 906.2306001318971 653.7183634186831 906.582325785887 652.9929292573289 C 906.9340514398768 652.2455122426004 907 651.6519752014924 907 651.0144724536358 L 907 487.4180776415892 C 907 486.78057489373253 906.9340514398768 486.1870378526246 906.582325785887 485.46160369127045 C 906.2306001318971 484.71418667654194 905.2853374367993 483.3732326207055 903.3508463398549 483.3732326207055 Z" stroke-miterlimit="10" stroke-dasharray=""/><path fill="none" stroke="#222222" paint-order="fill stroke markers" d=" M 823.8828313915146 500.4099439858407 L 823.8828313915146 507.0047999981511 L 889.3917344471313 507.0047999981511 L 889.3917344471313 500.4099439858407 Z" stroke-miterlimit="10" stroke-dasharray=""/><path fill="none" stroke="#222222" paint-order="fill stroke markers" d=" M 823.8828313915146 517.6005353245964 L 823.8828313915146 524.1953913369068 L 889.3917344471313 524.1953913369068 L 889.3917344471313 517.6005353245964 Z" stroke-miterlimit="10" stroke-dasharray=""/><path fill="none" stroke="#222222" paint-order="fill stroke markers" d=" M 823.8828313915146 534.7911266633522 L 823.8828313915146 541.3859826756626 L 889.3917344471313 541.3859826756626 L 889.3917344471313 534.7911266633522 Z" stroke-miterlimit="10" stroke-dasharray=""/><path fill="none" stroke="#222222" paint-order="fill stroke markers" d=" M 823.8828313915146 551.9597351487337 L 823.8828313915146 558.5545911610441 L 889.3917344471313 558.5545911610441 L 889.3917344471313 551.9597351487337 Z" stroke-miterlimit="10" stroke-dasharray=""/><path fill="none" stroke="#222222" paint-order="fill stroke markers" d="" stroke-miterlimit="10" stroke-dasharray=""/></g><g id="7a811f9" name="aws4.traditional server"><path fill="none" stroke="#222222" paint-order="fill stroke markers" d=" M 987.5948560123104 489.9680886330159 L 1074.4051439876896 489.9680886330159 L 1074.4051439876896 648.4644614622091 L 987.5948560123104 648.4644614622091 Z" stroke-miterlimit="10" stroke-dasharray=""/><path fill="none" stroke="#222222" paint-order="fill stroke markers" d=" M 984.6711365135194 483.3732326207055 C 982.736645416575 483.3732326207055 981.7913827214772 484.71418667654194 981.4396570674874 485.46160369127045 C 981.0879314134975 486.1870378526246 981 486.78057489373253 981 487.4180776415892 L 981 651.0144724536358 C 981 651.6519752014924 981.0879314134975 652.2455122426004 981.4396570674874 652.9929292573289 C 981.7913827214772 653.7183634186831 982.736645416575 655.0593174745195 984.6711365135194 655.0593174745195 L 1077.3508463398548 655.0593174745195 C 1079.2853374367992 655.0593174745195 1080.230600131897 653.7183634186831 1080.582325785887 652.9929292573289 C 1080.9340514398768 652.2455122426004 1081 651.6519752014924 1081 651.0144724536358 L 1081 487.4180776415892 C 1081 486.78057489373253 1080.9340514398768 486.1870378526246 1080.582325785887 485.46160369127045 C 1080.230600131897 484.71418667654194 1079.2853374367992 483.3732326207055 1077.3508463398548 483.3732326207055 Z" stroke-miterlimit="10" stroke-dasharray=""/><path fill="none" stroke="#222222" paint-order="fill stroke markers" d=" M 997.8828313915146 500.4099439858407 L 997.8828313915146 507.0047999981511 L 1063.3917344471313 507.0047999981511 L 1063.3917344471313 500.4099439858407 Z" stroke-miterlimit="10" stroke-dasharray=""/><path fill="none" stroke="#222222" paint-order="fill stroke markers" d=" M 997.8828313915146 517.6005353245964 L 997.8828313915146 524.1953913369068 L 1063.3917344471313 524.1953913369068 L 1063.3917344471313 517.6005353245964 Z" stroke-miterlimit="10" stroke-dasharray=""/><path fill="none" stroke="#222222" paint-order="fill stroke markers" d=" M 997.8828313915146 534.7911266633522 L 997.8828313915146 541.3859826756626 L 1063.3917344471313 541.3859826756626 L 1063.3917344471313 534.7911266633522 Z" stroke-miterlimit="10" stroke-dasharray=""/><path fill="none" stroke="#222222" paint-order="fill stroke markers" d=" M 997.8828313915146 551.9597351487337 L 997.8828313915146 558.5545911610441 L 1063.3917344471313 558.5545911610441 L 1063.3917344471313 551.9597351487337 Z" stroke-miterlimit="10" stroke-dasharray=""/><path fill="none" stroke="#222222" paint-order="fill stroke markers" d="" stroke-miterlimit="10" stroke-dasharray=""/></g><g id="8221c67" name="networks.PC" text="电脑2"><path fill="none" stroke="none"/><path fill="none" stroke="#222222" paint-order="fill stroke markers" d=" M 1171.0667 534.2162750476125 L 1200.9333 534.2162750476125 L 1200.9333 534.2162750476125 A 0.06670000000000002 0.06670000000000002 0 0 1 1201 534.2829750476125 L 1201 594.1495750476125 L 1201 594.1495750476125 A 0.06670000000000002 0.06670000000000002 0 0 1 1200.9333 594.2162750476125 L 1171.087834677773 604.1869315813816 L 1171.087834677773 604.1869315813816 A 0.06670000000000002 0.06670000000000002 0 0 1 1171 604.1236685163639 L 1171 534.2829750476125 L 1171 534.2829750476125 A 0.06670000000000002 0.06670000000000002 0 0 1 1171.0667 534.2162750476125 Z" stroke-linejoin="round" stroke-miterlimit="10" stroke-dasharray=""/><path fill="none" stroke="#222222" paint-order="fill stroke markers" d=" M 1171 544.2162750476125 L 1201 544.2162750476125" stroke-linejoin="round" stroke-miterlimit="10" stroke-dasharray=""/><path fill="none" stroke="#222222" paint-order="fill stroke markers" d=" M 1171 564.2162750476125 L 1201 564.2162750476125" stroke-linejoin="round" stroke-miterlimit="10" stroke-dasharray=""/><path fill="none" stroke="#222222" paint-order="fill stroke markers" d=" M 1191 539.2162750476125 L 1271 539.2162750476125 L 1271 584.2162750476125 L 1191 584.2162750476125 L 1191 539.2162750476125 Z" stroke-linejoin="round" stroke-miterlimit="10" stroke-dasharray=""/><path fill="none" stroke="#222222" paint-order="fill stroke markers" d=" M 1221 584.2162750476125 L 1241 584.2162750476125 L 1241 594.2162750476125 L 1221 594.2162750476125 L 1221 584.2162750476125 Z" stroke-linejoin="round" stroke-miterlimit="10" stroke-dasharray=""/><path fill="none" stroke="#222222" paint-order="fill stroke markers" d=" M 1206 593.2162750476125 L 1256 593.2162750476125 L 1266 604.2162750476125 L 1196 604.2162750476125 Z" stroke-linejoin="round" stroke-miterlimit="10" stroke-dasharray=""/><path fill="none" stroke="#222222" paint-order="fill stroke markers" d=" M 1220 601.7162750476125 L 1238 601.7162750476125" stroke-linejoin="round" stroke-miterlimit="10" stroke-dasharray=""/><path fill="none" stroke="#222222" paint-order="fill stroke markers" d=" M 1207 598.7162750476125 L 1246 598.7162750476125" stroke-linejoin="round" stroke-miterlimit="10" stroke-dasharray=""/><path fill="none" stroke="#222222" paint-order="fill stroke markers" d=" M 1209 595.7162750476125 L 1245 595.7162750476125" stroke-linejoin="round" stroke-miterlimit="10" stroke-dasharray=""/><path fill="none" stroke="#222222" paint-order="fill stroke markers" d=" M 1248 595.7162750476125 L 1255 595.7162750476125" stroke-linejoin="round" stroke-miterlimit="10" stroke-dasharray=""/><path fill="none" stroke="#222222" paint-order="fill stroke markers" d=" M 1250 598.7162750476125 L 1257 598.7162750476125" stroke-linejoin="round" stroke-miterlimit="10" stroke-dasharray=""/><path fill="none" stroke="#222222" paint-order="fill stroke markers" d=" M 1252 601.7162750476125 L 1259 601.7162750476125" stroke-linejoin="round" stroke-miterlimit="10" stroke-dasharray=""/><path fill="none" stroke="#222222" paint-order="fill stroke markers" d=" M 1194 542.2162750476125 L 1267 542.2162750476125 L 1267 581.2162750476125 L 1194 581.2162750476125 L 1194 542.2162750476125 Z" stroke-linejoin="round" stroke-miterlimit="10" stroke-dasharray=""/><path fill="none" stroke="none"/><g><path fill="none" stroke="none"/><text fill="#222222" stroke="none" font-family="&quot;Hiragino Sans GB&quot;, &quot;Microsoft YaHei&quot;, &quot;Helvetica Neue&quot;, Helvetica, Arial " font-size="12.000000000000005px" font-style="normal" font-weight="normal" text-decoration="normal" x="1221" y="570.5019893333268" text-anchor="middle" dominant-baseline="central">电脑2</text></g></g><g id="2e0e53ec" name="line" from-id="716058b7" to-id="30a47535"><path fill="none" stroke="#222222" paint-order="fill stroke markers" d=" M 92.99999999999997 554.743042426907 L 163.99999999999983 329.5" stroke-linecap="round" stroke-miterlimit="10" stroke-dasharray=""/></g><g id="2f0396e" name="line" from-id="e587c5d" to-id="5562d6ea"><path fill="none" stroke="#222222" paint-order="fill stroke markers" d=" M 340.9999999999999 160.75653760389213 L 586 62.671009771986974" stroke-linecap="round" stroke-miterlimit="10" stroke-dasharray=""/></g><g id="32707e74" name="line" from-id="fce796" to-id="5562d6ea"><path fill="none" stroke="#222222" paint-order="fill stroke markers" d=" M 819 148.12977022459765 L 660 62.671009771986974" stroke-linecap="round" stroke-miterlimit="10" stroke-dasharray=""/></g><g id="1e3b1dbe" name="networks.Switch"><path fill="none" stroke="#222222" paint-order="fill stroke markers" d=" M 981.2 383.0301901937985 L 1080.8 383.0301901937985 L 1080.8 383.0301901937985 A 0.2 0.2 0 0 1 1081 383.2301901937985 L 1081 407.8301901937985 L 1081 407.8301901937985 A 0.2 0.2 0 0 1 1080.8 408.0301901937985 L 981.208009601257 412.0218531356319 L 981.208009601257 412.0218531356319 A 0.2 0.2 0 0 1 981 411.82201358427204 L 981 383.2301901937985 L 981 383.2301901937985 A 0.2 0.2 0 0 1 981.2 383.0301901937985 Z" stroke-miterlimit="10" stroke-dasharray=""/><path fill="none" stroke="#222222" paint-order="fill stroke markers" d=" M 991 408.0301901937985 L 1071 408.0301901937985 L 1071 412.0301901937985 L 991 412.0301901937985 L 991 408.0301901937985 Z" stroke-miterlimit="10" stroke-dasharray=""/><path fill="none" stroke="none"/><path fill="none" stroke="none"/><path fill="none" stroke="none"/><path fill="none" stroke="none"/><path fill="none" stroke="none"/><path fill="none" stroke="none"/><path fill="none" stroke="none"/><path fill="none" stroke="none"/><path fill="none" stroke="none"/><path fill="none" stroke="none"/><path fill="none" stroke="none"/><path fill="none" stroke="#222222" paint-order="fill stroke markers" d=" M 989 400.0301901937985 A 2 2 0 1 1 988.9999990000001 400.0281901941318" stroke-miterlimit="10" stroke-dasharray=""/><path fill="none" stroke="#222222" paint-order="fill stroke markers" d=" M 984 390.0301901937985 L 990 390.0301901937985 L 990 393.0301901937985 L 988 393.0301901937985 L 988 394.0301901937985 L 986 394.0301901937985 L 986 393.0301901937985 L 984 393.0301901937985 Z" stroke-miterlimit="10" stroke-dasharray=""/><path fill="none" stroke="#222222" paint-order="fill stroke markers" d=" M 992.5 390.0301901937985 L 998.5 390.0301901937985 L 998.5 393.0301901937985 L 996.5 393.0301901937985 L 996.5 394.0301901937985 L 994.5 394.0301901937985 L 994.5 393.0301901937985 L 992.5 393.0301901937985 Z" stroke-miterlimit="10" stroke-dasharray=""/><path fill="none" stroke="#222222" paint-order="fill stroke markers" d=" M 1001 390.0301901937985 L 1007 390.0301901937985 L 1007 393.0301901937985 L 1005 393.0301901937985 L 1005 394.0301901937985 L 1003 394.0301901937985 L 1003 393.0301901937985 L 1001 393.0301901937985 Z" stroke-miterlimit="10" stroke-dasharray=""/><path fill="none" stroke="#222222" paint-order="fill stroke markers" d=" M 1009.5 390.0301901937985 L 1015.5 390.0301901937985 L 1015.5 393.0301901937985 L 1013.5 393.0301901937985 L 1013.5 394.0301901937985 L 1011.5 394.0301901937985 L 1011.5 393.0301901937985 L 1009.5 393.0301901937985 Z" stroke-miterlimit="10" stroke-dasharray=""/><path fill="none" stroke="#222222" paint-order="fill stroke markers" d=" M 1018 390.0301901937985 L 1024 390.0301901937985 L 1024 393.0301901937985 L 1022 393.0301901937985 L 1022 394.0301901937985 L 1020 394.0301901937985 L 1020 393.0301901937985 L 1018 393.0301901937985 Z" stroke-miterlimit="10" stroke-dasharray=""/><path fill="none" stroke="#222222" paint-order="fill stroke markers" d=" M 1026.5 390.0301901937985 L 1032.5 390.0301901937985 L 1032.5 393.0301901937985 L 1030.5 393.0301901937985 L 1030.5 394.0301901937985 L 1028.5 394.0301901937985 L 1028.5 393.0301901937985 L 1026.5 393.0301901937985 Z" stroke-miterlimit="10" stroke-dasharray=""/><path fill="none" stroke="#222222" paint-order="fill stroke markers" d=" M 1035 390.0301901937985 L 1041 390.0301901937985 L 1041 393.0301901937985 L 1039 393.0301901937985 L 1039 394.0301901937985 L 1037 394.0301901937985 L 1037 393.0301901937985 L 1035 393.0301901937985 Z" stroke-miterlimit="10" stroke-dasharray=""/><path fill="none" stroke="#222222" paint-order="fill stroke markers" d=" M 1043.5 390.0301901937985 L 1049.5 390.0301901937985 L 1049.5 393.0301901937985 L 1047.5 393.0301901937985 L 1047.5 394.0301901937985 L 1045.5 394.0301901937985 L 1045.5 393.0301901937985 L 1043.5 393.0301901937985 Z" stroke-miterlimit="10" stroke-dasharray=""/><path fill="none" stroke="#222222" paint-order="fill stroke markers" d="" stroke-miterlimit="10" stroke-dasharray=""/><path fill="none" stroke="#222222" paint-order="fill stroke markers" d=" M 1063 392.0301901937985 L 1065 390.0301901937985 L 1067 392.0301901937985" stroke-miterlimit="10" stroke-dasharray=""/><path fill="none" stroke="#222222" paint-order="fill stroke markers" d=" M 1063 399.0301901937985 L 1065 401.0301901937985 L 1067 399.0301901937985" stroke-miterlimit="10" stroke-dasharray=""/><path fill="none" stroke="#222222" paint-order="fill stroke markers" d=" M 1071 392.0301901937985 L 1073 390.0301901937985 L 1075 392.0301901937985" stroke-miterlimit="10" stroke-dasharray=""/><path fill="none" stroke="#222222" paint-order="fill stroke markers" d=" M 1071 399.0301901937985 L 1073 401.0301901937985 L 1075 399.0301901937985" stroke-miterlimit="10" stroke-dasharray=""/><path fill="none" stroke="#222222" paint-order="fill stroke markers" d=" M 1073 401.0301901937985 L 1073 398.0301901937985 L 1065 393.0301901937985 L 1065 390.0301901937985" stroke-miterlimit="10" stroke-dasharray=""/><path fill="none" stroke="#222222" paint-order="fill stroke markers" d=" M 1065 401.0301901937985 L 1065 398.0301901937985 L 1073 393.0301901937985 L 1073 390.0301901937985" stroke-miterlimit="10" stroke-dasharray=""/></g><g id="56824df2" name="line" from-id="fce796" to-id="1e3b1dbe"><path fill="none" stroke="#222222" paint-order="fill stroke markers" d=" M 895 202.18207105573492 L 1031 383.0301901937985" stroke-linecap="round" stroke-miterlimit="10" stroke-dasharray=""/></g><g id="126aae8" name="line" from-id="1e3b1dbe" to-id="640a5adb"><path fill="none" stroke="#222222" paint-order="fill stroke markers" d=" M 991 412.0301901937985 L 857 483.3732326207055" stroke-linecap="round" stroke-miterlimit="10" stroke-dasharray=""/></g><g id="3243b212" name="line" from-id="1e3b1dbe" to-id="7a811f9"><path fill="none" stroke="#222222" paint-order="fill stroke markers" d=" M 1031 412.0301901937985 L 1031 483.3732326207055" stroke-linecap="round" stroke-miterlimit="10" stroke-dasharray=""/></g><g id="197c33c2" name="line" from-id="1e3b1dbe" to-id="8221c67"><path fill="none" stroke="#222222" paint-order="fill stroke markers" d=" M 1071 412.0301901937985 L 1221 539.1162750476125" stroke-linecap="round" stroke-miterlimit="10" stroke-dasharray=""/></g><g id="30a47535" name="networks.Switch"><path fill="none" stroke="#222222" paint-order="fill stroke markers" d=" M 114.19999999999983 300.5 L 213.79999999999984 300.5 L 213.79999999999984 300.5 A 0.2 0.2 0 0 1 213.99999999999983 300.7 L 213.99999999999983 325.3 L 213.99999999999983 325.3 A 0.2 0.2 0 0 1 213.79999999999984 325.5 L 114.20800960125673 329.4916629418334 L 114.20800960125673 329.4916629418334 A 0.2 0.2 0 0 1 113.99999999999983 329.29182339047355 L 113.99999999999983 300.7 L 113.99999999999983 300.7 A 0.2 0.2 0 0 1 114.19999999999983 300.5 Z" stroke-miterlimit="10" stroke-dasharray=""/><path fill="none" stroke="#222222" paint-order="fill stroke markers" d=" M 123.99999999999983 325.5 L 203.99999999999983 325.5 L 203.99999999999983 329.5 L 123.99999999999983 329.5 L 123.99999999999983 325.5 Z" stroke-miterlimit="10" stroke-dasharray=""/><path fill="none" stroke="none"/><path fill="none" stroke="none"/><path fill="none" stroke="none"/><path fill="none" stroke="none"/><path fill="none" stroke="none"/><path fill="none" stroke="none"/><path fill="none" stroke="none"/><path fill="none" stroke="none"/><path fill="none" stroke="none"/><path fill="none" stroke="none"/><path fill="none" stroke="none"/><path fill="none" stroke="#222222" paint-order="fill stroke markers" d=" M 121.99999999999983 317.5 A 2 2 0 1 1 121.99999899999992 317.4980000003333" stroke-miterlimit="10" stroke-dasharray=""/><path fill="none" stroke="#222222" paint-order="fill stroke markers" d=" M 116.99999999999983 307.5 L 122.99999999999983 307.5 L 122.99999999999983 310.5 L 120.99999999999983 310.5 L 120.99999999999983 311.5 L 118.99999999999983 311.5 L 118.99999999999983 310.5 L 116.99999999999983 310.5 Z" stroke-miterlimit="10" stroke-dasharray=""/><path fill="none" stroke="#222222" paint-order="fill stroke markers" d=" M 125.49999999999983 307.5 L 131.49999999999983 307.5 L 131.49999999999983 310.5 L 129.49999999999983 310.5 L 129.49999999999983 311.5 L 127.49999999999983 311.5 L 127.49999999999983 310.5 L 125.49999999999983 310.5 Z" stroke-miterlimit="10" stroke-dasharray=""/><path fill="none" stroke="#222222" paint-order="fill stroke markers" d=" M 133.99999999999983 307.5 L 139.99999999999983 307.5 L 139.99999999999983 310.5 L 137.99999999999983 310.5 L 137.99999999999983 311.5 L 135.99999999999983 311.5 L 135.99999999999983 310.5 L 133.99999999999983 310.5 Z" stroke-miterlimit="10" stroke-dasharray=""/><path fill="none" stroke="#222222" paint-order="fill stroke markers" d=" M 142.49999999999983 307.5 L 148.49999999999983 307.5 L 148.49999999999983 310.5 L 146.49999999999983 310.5 L 146.49999999999983 311.5 L 144.49999999999983 311.5 L 144.49999999999983 310.5 L 142.49999999999983 310.5 Z" stroke-miterlimit="10" stroke-dasharray=""/><path fill="none" stroke="#222222" paint-order="fill stroke markers" d=" M 150.99999999999983 307.5 L 156.99999999999983 307.5 L 156.99999999999983 310.5 L 154.99999999999983 310.5 L 154.99999999999983 311.5 L 152.99999999999983 311.5 L 152.99999999999983 310.5 L 150.99999999999983 310.5 Z" stroke-miterlimit="10" stroke-dasharray=""/><path fill="none" stroke="#222222" paint-order="fill stroke markers" d=" M 159.49999999999983 307.5 L 165.49999999999983 307.5 L 165.49999999999983 310.5 L 163.49999999999983 310.5 L 163.49999999999983 311.5 L 161.49999999999983 311.5 L 161.49999999999983 310.5 L 159.49999999999983 310.5 Z" stroke-miterlimit="10" stroke-dasharray=""/><path fill="none" stroke="#222222" paint-order="fill stroke markers" d=" M 167.99999999999983 307.5 L 173.99999999999983 307.5 L 173.99999999999983 310.5 L 171.99999999999983 310.5 L 171.99999999999983 311.5 L 169.99999999999983 311.5 L 169.99999999999983 310.5 L 167.99999999999983 310.5 Z" stroke-miterlimit="10" stroke-dasharray=""/><path fill="none" stroke="#222222" paint-order="fill stroke markers" d=" M 176.49999999999983 307.5 L 182.49999999999983 307.5 L 182.49999999999983 310.5 L 180.49999999999983 310.5 L 180.49999999999983 311.5 L 178.49999999999983 311.5 L 178.49999999999983 310.5 L 176.49999999999983 310.5 Z" stroke-miterlimit="10" stroke-dasharray=""/><path fill="none" stroke="#222222" paint-order="fill stroke markers" d="" stroke-miterlimit="10" stroke-dasharray=""/><path fill="none" stroke="#222222" paint-order="fill stroke markers" d=" M 195.99999999999983 309.5 L 197.99999999999983 307.5 L 199.99999999999983 309.5" stroke-miterlimit="10" stroke-dasharray=""/><path fill="none" stroke="#222222" paint-order="fill stroke markers" d=" M 195.99999999999983 316.5 L 197.99999999999983 318.5 L 199.99999999999983 316.5" stroke-miterlimit="10" stroke-dasharray=""/><path fill="none" stroke="#222222" paint-order="fill stroke markers" d=" M 203.99999999999983 309.5 L 205.99999999999983 307.5 L 207.99999999999983 309.5" stroke-miterlimit="10" stroke-dasharray=""/><path fill="none" stroke="#222222" paint-order="fill stroke markers" d=" M 203.99999999999983 316.5 L 205.99999999999983 318.5 L 207.99999999999983 316.5" stroke-miterlimit="10" stroke-dasharray=""/><path fill="none" stroke="#222222" paint-order="fill stroke markers" d=" M 205.99999999999983 318.5 L 205.99999999999983 315.5 L 197.99999999999983 310.5 L 197.99999999999983 307.5" stroke-miterlimit="10" stroke-dasharray=""/><path fill="none" stroke="#222222" paint-order="fill stroke markers" d=" M 197.99999999999983 318.5 L 197.99999999999983 315.5 L 205.99999999999983 310.5 L 205.99999999999983 307.5" stroke-miterlimit="10" stroke-dasharray=""/></g><g id="d57450e" name="line" from-id="30a47535" to-id="e587c5d"><path fill="none" stroke="#222222" paint-order="fill stroke markers" d=" M 163.99999999999983 300.5 L 264.99999999999983 214.80883843502937" stroke-linecap="round" stroke-miterlimit="10" stroke-dasharray=""/></g><g id="130c8e40" name="aws4.traditional server"><path fill="none" stroke="#222222" paint-order="fill stroke markers" d=" M 266.5948560123104 473.9540558364481 L 353.4051439876896 473.9540558364481 L 353.4051439876896 632.4504286656413 L 266.5948560123104 632.4504286656413 Z" stroke-miterlimit="10" stroke-dasharray=""/><path fill="none" stroke="#222222" paint-order="fill stroke markers" d=" M 263.67113651351946 467.3591998241377 C 261.7366454165751 467.3591998241377 260.79138272147725 468.70015387997415 260.43965706748736 469.44757089470266 C 260.0879314134975 470.1730050560568 260 470.76654209716474 260 471.4040448450214 L 260 635.000439657068 C 260 635.6379424049246 260.0879314134975 636.2314794460326 260.43965706748736 636.9788964607611 C 260.79138272147725 637.7043306221153 261.7366454165751 639.0452846779517 263.67113651351946 639.0452846779517 L 356.3508463398549 639.0452846779517 C 358.2853374367993 639.0452846779517 359.2306001318971 637.7043306221153 359.582325785887 636.9788964607611 C 359.9340514398769 636.2314794460326 360 635.6379424049246 360 635.000439657068 L 360 471.4040448450214 C 360 470.76654209716474 359.9340514398769 470.1730050560568 359.582325785887 469.44757089470266 C 359.2306001318971 468.70015387997415 358.2853374367993 467.3591998241377 356.3508463398549 467.3591998241377 Z" stroke-miterlimit="10" stroke-dasharray=""/><path fill="none" stroke="#222222" paint-order="fill stroke markers" d=" M 276.8828313915146 484.3959111892729 L 276.8828313915146 490.9907672015833 L 342.3917344471312 490.9907672015833 L 342.3917344471312 484.3959111892729 Z" stroke-miterlimit="10" stroke-dasharray=""/><path fill="none" stroke="#222222" paint-order="fill stroke markers" d=" M 276.8828313915146 501.5865025280287 L 276.8828313915146 508.1813585403391 L 342.3917344471312 508.1813585403391 L 342.3917344471312 501.5865025280287 Z" stroke-miterlimit="10" stroke-dasharray=""/><path fill="none" stroke="#222222" paint-order="fill stroke markers" d=" M 276.8828313915146 518.7770938667844 L 276.8828313915146 525.3719498790948 L 342.3917344471312 525.3719498790948 L 342.3917344471312 518.7770938667844 Z" stroke-miterlimit="10" stroke-dasharray=""/><path fill="none" stroke="#222222" paint-order="fill stroke markers" d=" M 276.8828313915146 535.9457023521659 L 276.8828313915146 542.5405583644763 L 342.3917344471312 542.5405583644763 L 342.3917344471312 535.9457023521659 Z" stroke-miterlimit="10" stroke-dasharray=""/><path fill="none" stroke="#222222" paint-order="fill stroke markers" d="" stroke-miterlimit="10" stroke-dasharray=""/></g><g id="bf4c81e" name="line" from-id="130c8e40" to-id="30a47535"><path fill="none" stroke="#222222" paint-order="fill stroke markers" d=" M 310 467.3591998241377 L 203.99999999999983 329.5" stroke-linecap="round" stroke-miterlimit="10" stroke-dasharray=""/></g><g id="67d9555d" name="text" text="1.2.3.4"><g><path fill="none" stroke="none"/><text fill="#222222" stroke="none" font-family="&quot;Hiragino Sans GB&quot;, &quot;Microsoft YaHei&quot;, &quot;Helvetica Neue&quot;, Helvetica, Arial " font-size="12px" font-style="normal" font-weight="normal" text-decoration="normal" x="352.99999999999983" y="124.28571428571429" text-anchor="middle" dominant-baseline="central">1.2.3.4</text></g></g><g id="7b171f8f" name="text" text="192.168.1.1"><g><path fill="none" stroke="none"/><text fill="#222222" stroke="none" font-family="&quot;Hiragino Sans GB&quot;, &quot;Microsoft YaHei&quot;, &quot;Helvetica Neue&quot;, Helvetica, Arial " font-size="12px" font-style="normal" font-weight="normal" text-decoration="normal" x="213.99999999999983" y="222.28571428571428" text-anchor="middle" dominant-baseline="central">192.168.1.1</text></g></g><g id="54185396" name="text" text="192.168.1.10"><g><path fill="none" stroke="none"/><text fill="#222222" stroke="none" font-family="&quot;Hiragino Sans GB&quot;, &quot;Microsoft YaHei&quot;, &quot;Helvetica Neue&quot;, Helvetica, Arial " font-size="12px" font-style="normal" font-weight="normal" text-decoration="normal" x="60" y="519.2857142857143" text-anchor="middle" dominant-baseline="central">192.168.1.10</text></g></g><g id="20c735a" name="text" text="192.168.1.20"><g><path fill="none" stroke="none"/><text fill="#222222" stroke="none" font-family="&quot;Hiragino Sans GB&quot;, &quot;Microsoft YaHei&quot;, &quot;Helvetica Neue&quot;, Helvetica, Arial " font-size="12px" font-style="normal" font-weight="normal" text-decoration="normal" x="372.99999999999983" y="435.801871682945" text-anchor="middle" dominant-baseline="central">192.168.1.20</text></g></g><g id="f5b7b5d" name="text" text="100.192.147.13"><g><path fill="none" stroke="none"/><text fill="#222222" stroke="none" font-family="&quot;Hiragino Sans GB&quot;, &quot;Microsoft YaHei&quot;, &quot;Helvetica Neue&quot;, Helvetica, Arial " font-size="12px" font-style="normal" font-weight="normal" text-decoration="normal" x="739" y="151.86512312120362" text-anchor="middle" dominant-baseline="central">100.192.147.13</text></g></g><g id="f5c8172" name="text" text="192.168.1.1"><g><path fill="none" stroke="none"/><text fill="#222222" stroke="none" font-family="&quot;Hiragino Sans GB&quot;, &quot;Microsoft YaHei&quot;, &quot;Helvetica Neue&quot;, Helvetica, Arial " font-size="12px" font-style="normal" font-weight="normal" text-decoration="normal" x="958" y="226.44163492588058" text-anchor="middle" dominant-baseline="central">192.168.1.1</text></g></g><g id="020f214" name="text" text="192.168.1.10"><g><path fill="none" stroke="none"/><text fill="#222222" stroke="none" font-family="&quot;Hiragino Sans GB&quot;, &quot;Microsoft YaHei&quot;, &quot;Helvetica Neue&quot;, Helvetica, Arial " font-size="12px" font-style="normal" font-weight="normal" text-decoration="normal" x="820" y="464.29974708228207" text-anchor="middle" dominant-baseline="central">192.168.1.10</text></g></g><g id="60159d7d" name="text" text="192.168.1.20"><g><path fill="none" stroke="none"/><text fill="#222222" stroke="none" font-family="&quot;Hiragino Sans GB&quot;, &quot;Microsoft YaHei&quot;, &quot;Helvetica Neue&quot;, Helvetica, Arial " font-size="12px" font-style="normal" font-weight="normal" text-decoration="normal" x="1271" y="512.1427895091891" text-anchor="middle" dominant-baseline="central">192.168.1.20</text></g></g><g id="c48a5ea" name="text" text="192.168.1.30"><g><path fill="none" stroke="none"/><text fill="#222222" stroke="none" font-family="&quot;Hiragino Sans GB&quot;, &quot;Microsoft YaHei&quot;, &quot;Helvetica Neue&quot;, Helvetica, Arial " font-size="12px" font-style="normal" font-weight="normal" text-decoration="normal" x="1078" y="465.81590447951277" text-anchor="middle" dominant-baseline="central">192.168.1.30</text></g></g></g></svg>